<svg width="116" height="55" viewBox="0 0 116 55" fill="none" xmlns="http://www.w3.org/2000/svg">
<path d="M107.455 27.955C106.255 27.535 105.055 27.1 103.855 26.65C102.685 26.17 101.695 25.495 100.885 24.625C100.075 23.755 99.6699 22.645 99.6699 21.295C99.6699 19.915 100.3 18.805 101.56 17.965C102.82 17.095 104.65 16.66 107.05 16.66C109.48 16.66 111.37 17.08 112.72 17.92C114.1 18.76 114.79 19.735 114.79 20.845C114.79 21.385 114.58 21.82 114.16 22.15C113.77 22.48 113.38 22.645 112.99 22.645C112.24 22.645 111.745 22.465 111.505 22.105C111.685 21.895 111.775 21.49 111.775 20.89C111.775 20.26 111.31 19.69 110.38 19.18C109.45 18.67 108.415 18.415 107.275 18.415C106.135 18.415 105.19 18.625 104.44 19.045C103.69 19.465 103.315 20.11 103.315 20.98C103.315 21.82 103.735 22.555 104.575 23.185C105.445 23.815 106.48 24.34 107.68 24.76C108.91 25.18 110.125 25.63 111.325 26.11C112.555 26.59 113.59 27.28 114.43 28.18C115.3 29.05 115.735 30.13 115.735 31.42C115.735 33.34 114.895 34.78 113.215 35.74C111.565 36.67 109.375 37.135 106.645 37.135C103.945 37.135 101.74 36.355 100.03 34.795C98.3499 33.205 97.5099 31.24 97.5099 28.9C97.5099 28.06 97.6749 27.4 98.0049 26.92C98.3349 26.44 98.7099 26.2 99.1299 26.2C99.9099 26.2 100.36 26.335 100.48 26.605L100.57 26.74C100.39 27.19 100.3 27.745 100.3 28.405C100.3 30.415 100.885 32.08 102.055 33.4C103.225 34.72 104.845 35.38 106.915 35.38C110.095 35.38 111.7 34.255 111.73 32.005C111.73 30.295 110.305 28.945 107.455 27.955Z" fill="#252324"/>
<path d="M77.2012 19.405C77.2012 18.505 77.4262 17.83 77.8762 17.38C78.3262 16.9 78.8962 16.66 79.5862 16.66C80.2762 16.66 80.8312 16.87 81.2512 17.29V30.205C81.2512 33.775 82.1512 35.56 83.9512 35.56C85.5712 35.56 86.8912 34.705 87.9112 32.995C88.9612 31.285 89.4862 28.405 89.4862 24.355V19.405C89.4862 18.505 89.7112 17.83 90.1612 17.38C90.6112 16.9 91.1812 16.66 91.8712 16.66C92.5612 16.66 93.1162 16.87 93.5362 17.29V40.15C93.8962 40.12 94.4662 40.105 95.2462 40.105C96.0262 40.105 96.4162 40.435 96.4162 41.095L96.1462 41.77C95.0062 41.77 94.1362 41.785 93.5362 41.815V44.065C93.5362 47.155 92.8312 49.585 91.4212 51.355C90.0412 53.155 88.1812 54.055 85.8412 54.055C84.4612 54.055 83.2312 53.635 82.1512 52.795C81.1012 51.985 80.5762 50.695 80.5762 48.925C80.5762 46.645 81.3862 44.83 83.0062 43.48C84.6262 42.13 86.7862 41.185 89.4862 40.645V33.625C88.2262 35.965 86.2012 37.135 83.4112 37.135C81.4912 37.135 79.9762 36.52 78.8662 35.29C77.7562 34.06 77.2012 32.29 77.2012 29.98V19.405ZM82.8712 49.06C82.8712 50.11 83.1562 50.905 83.7262 51.445C84.2962 52.015 84.9862 52.3 85.7962 52.3C86.6062 52.3 87.2662 52.06 87.7762 51.58C88.9162 50.56 89.4862 47.485 89.4862 42.355C85.0762 43.345 82.8712 45.58 82.8712 49.06Z" fill="#252324"/>
<path d="M62.9629 12.745C62.9629 11.845 63.1879 11.17 63.6379 10.72C64.0879 10.24 64.6579 10 65.3479 10C66.0379 10 66.5929 10.21 67.0129 10.63V17.29H73.1779C73.8079 17.29 74.2129 17.41 74.3929 17.65C74.6029 17.89 74.7079 18.295 74.7079 18.865H67.0129V30.205C67.0129 31.855 67.4779 33.13 68.4079 34.03C69.3679 34.93 70.4629 35.38 71.6929 35.38C73.5529 35.38 74.9179 34.69 75.7879 33.31C76.6579 31.93 77.0929 29.695 77.0929 26.605C77.1529 26.425 77.3779 26.335 77.7679 26.335C78.3079 26.335 78.5779 27.13 78.5779 28.72C78.5779 31.15 77.9629 33.16 76.7329 34.75C75.5329 36.34 73.6729 37.135 71.1529 37.135C68.6329 37.135 66.6379 36.475 65.1679 35.155C63.6979 33.835 62.9629 31.87 62.9629 29.26V12.745Z" fill="#252324"/>
<path d="M48.7246 12.745C48.7246 11.845 48.9496 11.17 49.3996 10.72C49.8496 10.24 50.4196 10 51.1096 10C51.7996 10 52.3546 10.21 52.7746 10.63V17.29H58.9396C59.5696 17.29 59.9746 17.41 60.1546 17.65C60.3646 17.89 60.4696 18.295 60.4696 18.865H52.7746V30.205C52.7746 31.855 53.2396 33.13 54.1696 34.03C55.1296 34.93 56.2246 35.38 57.4546 35.38C59.3146 35.38 60.6796 34.69 61.5496 33.31C62.4196 31.93 62.8546 29.695 62.8546 26.605C62.9146 26.425 63.1396 26.335 63.5296 26.335C64.0696 26.335 64.3396 27.13 64.3396 28.72C64.3396 31.15 63.7246 33.16 62.4946 34.75C61.2946 36.34 59.4346 37.135 56.9146 37.135C54.3946 37.135 52.3996 36.475 50.9296 35.155C49.4596 33.835 48.7246 31.87 48.7246 29.26V12.745Z" fill="#252324"/>
<path d="M49.2994 26.875C49.9294 26.875 50.2444 27.355 50.2444 28.315C50.2444 30.535 49.4644 32.56 47.9044 34.39C46.3744 36.22 44.0344 37.135 40.8844 37.135C37.7344 37.135 35.1994 36.295 33.2794 34.615C31.3894 32.905 30.4444 30.415 30.4444 27.145C30.4444 23.845 31.2844 21.28 32.9644 19.45C34.6444 17.59 36.7894 16.66 39.3994 16.66C41.2894 16.66 42.6694 17.17 43.5394 18.19C44.4094 19.18 44.8444 20.365 44.8444 21.745C44.8444 23.995 43.8994 25.87 42.0094 27.37C40.1494 28.84 37.7644 29.575 34.8544 29.575C35.1244 31.495 35.8144 32.95 36.9244 33.94C38.0644 34.9 39.5494 35.38 41.3794 35.38C43.2394 35.38 44.9044 34.69 46.3744 33.31C47.8744 31.9 48.6244 29.845 48.6244 27.145C48.6544 26.965 48.8794 26.875 49.2994 26.875ZM34.7194 27.505V27.91C36.5794 27.67 38.1844 27.085 39.5344 26.155C40.9144 25.225 41.6044 23.845 41.6044 22.015C41.6044 20.845 41.3494 19.96 40.8394 19.36C40.3294 18.73 39.6094 18.415 38.6794 18.415C37.2694 18.415 36.2494 19.105 35.6194 20.485C35.0194 21.865 34.7194 24.205 34.7194 27.505Z" fill="#252324"/>
<path d="M12.295 4.33002L13.645 4.28501C18.775 4.31502 22.765 5.29001 25.615 7.21001C28.465 9.13001 29.89 11.86 29.89 15.4C29.89 18.94 28.75 21.715 26.47 23.725C24.19 25.705 21.175 26.695 17.425 26.695C15.715 26.695 14.065 26.38 12.475 25.75V32.41C12.475 35.92 12.04 38.515 11.17 40.195C10.3 41.905 8.81497 42.76 6.71497 42.76C5.57497 42.76 4.68997 42.28 4.05997 41.32C3.42997 40.36 3.11497 38.995 3.11497 37.225C3.11497 33.955 4.82497 30.655 8.24497 27.325V7.88502C6.92497 8.48502 5.85997 9.20501 5.04997 10.045C4.23997 10.855 3.83497 11.635 3.83497 12.385C3.83497 13.135 3.92497 13.78 4.10497 14.32C3.92497 14.68 3.51997 14.86 2.88997 14.86C2.25997 14.86 1.71997 14.635 1.26997 14.185C0.819971 13.735 0.594971 13.135 0.594971 12.385C0.594971 10.975 1.29997 9.58002 2.70997 8.20002C4.11997 6.82001 5.96497 5.78501 8.24497 5.09501V3.38501C8.24497 2.48502 8.46997 1.81002 8.91997 1.36001C9.36997 0.880015 9.92497 0.640015 10.585 0.640015C11.245 0.640015 11.815 0.850015 12.295 1.27001V4.33002ZM17.065 24.355C19.915 24.355 22.045 23.605 23.455 22.105C24.865 20.575 25.57 18.4 25.57 15.58C25.57 12.73 24.535 10.51 22.465 8.92002C20.425 7.30002 17.5 6.49001 13.69 6.49001C13.21 6.49001 12.79 6.53502 12.43 6.62502V23.365C13.96 24.025 15.505 24.355 17.065 24.355ZM6.66997 41.005C7.29997 41.005 7.71997 40.27 7.92997 38.8C8.13997 37.33 8.24497 34.21 8.24497 29.44C6.11497 32.05 5.04997 34.63 5.04997 37.18C5.04997 39.73 5.58997 41.005 6.66997 41.005Z" fill="#252324"/>
</svg>
